# xmcd CD database file
#
# Track frame offsets:
#	150
#	17160
#	39749
#	56516
#	82747
#	102939
#	121687
#	144089
#	165172
#	185317
#	208320
#	231299
#	248986
#	266150
#	286422
#
# Disc length: 4069 seconds
#
# Revision: 0
# Processed by: cddbd v1.5.2PL0 Copyright (c) Steve Scherf et al.
# Submitted via: CDex 1.70beta2
#
DISCID=c70fe30f
DTITLE=Art Tatum - Jazz Ballads 18 CD1
DYEAR=2004
DGENRE=Jazz
TTITLE0=Can't We Be Friends (Swift-James) 
TTITLE1=Memories Of You (Razaf-Blake) 
TTITLE2=Over The Rainbow (Arlen- Harburg) 
TTITLE3=Body And Soul (Heyman-Sour-Eyton-Green)
TTITLE4=The Man I Love (Gershwin-Gershwin)
TTITLE5=September Song (Well-Anderson)
TTITLE6=Louise (Whiting)
TTITLE7=Love For Sale (Porter)
TTITLE8=Embraceable You (Gershwin-Gershwin)
TTITLE9=Come Rain Or Come Shine (Arlen-Mercer)
TTITLE10=Tenderly (Lawrence-Gross)
TTITLE11=l've Got The World On A String (Arlen-Koehler)
TTITLE12=Someone Ta Watch Over Me (Gershwinn-Gershwin)
TTITLE13=The Very Thought Of Youl (Noble)
TTITLE14=I Don't Stand A) Ghost Of A Chance (Young- Washington-Grosby)
EXTD=YEAR: 2004
EXTT0=
EXTT1=
EXTT2=
EXTT3=
EXTT4=
EXTT5=
EXTT6=
EXTT7=
EXTT8=
EXTT9=
EXTT10=
EXTT11=
EXTT12=
EXTT13=
EXTT14=
PLAYORDER=
